<?xml version="1.0" encoding="utf-8"?>
<!-- Generator: Adobe Illustrator 16.0.0, SVG Export Plug-In . SVG Version: 6.00 Build 0)  -->
<!DOCTYPE svg PUBLIC "-//W3C//DTD SVG 1.1//EN" "http://www.w3.org/Graphics/SVG/1.1/DTD/svg11.dtd">
<svg version="1.1" id="Layer_1" xmlns="http://www.w3.org/2000/svg" xmlns:xlink="http://www.w3.org/1999/xlink" x="0px" y="0px"
	 width="141.73px" height="141.73px" viewBox="0 0 141.73 141.73" enable-background="new 0 0 141.73 141.73" xml:space="preserve">
<g>
	<g>
		<path fill-rule="evenodd" clip-rule="evenodd" fill="none" d="M0.935,104.175c0-30.348,0-60.696,0-91.044
			c42.516,0,85.032,0,127.548,0c-0.276,0.104-0.547,0.232-0.831,0.31c-0.804,0.217-1.65,0.323-2.412,0.637
			c-1.482,0.611-2.787,1.503-3.876,2.717c-2.411,2.686-3.221,5.776-2.416,9.277c0.549,2.387,1.921,4.251,3.84,5.731
			c2.659,2.05,5.678,2.734,8.96,2.229c2.593-0.399,4.789-1.571,6.565-3.545c1.113-1.238,1.886-2.589,2.348-4.22
			c0.366-1.294,0.431-2.564,0.313-3.833c-0.267-2.896-1.827-5.123-4.021-6.915c-1.301-1.063-2.817-1.748-4.474-2.096
			c-0.468-0.099-0.937-0.195-1.404-0.293c3.347,0,6.693,0,10.042,0c0,40.632,0,81.265,0,121.933c-22.391,0-44.782,0-67.175,0
			c0.007-0.162,0.02-0.323,0.02-0.484c0.01-11.265,0.021-22.529,0.027-33.794c0.004-5.399,0.001-10.798,0.001-16.196
			c0-0.242,0-0.483,0-0.737c-0.319,0-0.534,0-0.75,0c-8.206,0-16.412,0-24.618-0.004c-0.204,0-0.408-0.055-0.612-0.084
			c0.004-4.68,0.01-9.359,0.011-14.038c0-1.332-0.012-2.663-0.018-3.994c-0.138-0.037-0.276-0.107-0.414-0.107
			c-4.931-0.006-9.862-0.006-14.793,0c-0.138,0-0.276,0.069-0.415,0.106c-0.007,2.315-0.019,4.629-0.019,6.944
			c0.001,3.733,0.01,7.466,0.016,11.198c0,3.671,0,7.343,0,11.014c0,2.161,0,4.321,0,6.481c0.169,0.043,0.339,0.122,0.508,0.122
			c3.401,0.008,6.802,0.007,10.203,0.005c5.056-0.002,10.112-0.007,15.168-0.011c0.017,0.231,0.047,0.463,0.047,0.694
			c0.002,10.766,0.002,21.53,0.001,32.295c0,0.197-0.016,0.394-0.025,0.591c-19.116,0-38.232,0-57.348,0c0-8.965,0-17.929,0-26.893
			c0.039,0.235,0.085,0.469,0.115,0.705c0.406,3.294,1.369,6.407,2.961,9.328c1.019,1.87,2.276,3.567,3.666,5.167
			c0.581,0.668,1.22,1.301,1.911,1.853c1.477,1.182,2.938,2.404,4.524,3.424c3.4,2.184,7.15,3.553,11.128,4.223
			c1.669,0.281,3.38,0.315,5.073,0.462c0.508,0.011,1.017,0.021,1.525,0.032c1.852-0.188,3.721-0.272,5.551-0.584
			c4.599-0.78,8.783-2.6,12.59-5.295c0.294-0.209,0.414-0.419,0.413-0.788c-0.015-4.229-0.009-8.458-0.009-12.688
			c0-0.174,0-0.349,0-0.502c-0.092-0.032-0.125-0.054-0.158-0.055c-0.377-0.004-0.758,0.021-1.132-0.015
			c-0.394-0.039-0.597,0.106-0.792,0.456c-1.161,2.084-2.708,3.849-4.612,5.279c-4.703,3.534-10.002,4.768-15.783,3.909
			c-4.84-0.719-8.99-2.824-12.128-6.633c-3.742-4.541-4.873-9.686-2.952-15.308c1.722-5.042,5.343-8.354,10.146-10.451
			c2.319-1.013,4.771-1.498,7.307-1.629c0-3.363,0-6.698,0-10.074c-0.84,0.063-1.649,0.079-2.445,0.194
			c-1.073,0.154-2.135,0.383-3.201,0.582c-0.848,0.158-1.715,0.256-2.54,0.497c-1.202,0.352-2.395,0.759-3.553,1.236
			c-1.118,0.46-2.215,0.987-3.272,1.575c-2.106,1.17-4.099,2.506-5.779,4.264c-0.874,0.914-1.848,1.742-2.653,2.711
			c-0.838,1.008-1.584,2.104-2.271,3.224c-1.689,2.754-2.801,5.735-3.306,8.935C1.153,102.864,1.042,103.519,0.935,104.175z
			 M86.04,134.839c0.125,0.009,0.249,0.026,0.374,0.026c5.581,0.002,11.163,0.002,16.745,0c0.124,0,0.249-0.016,0.374-0.024
			c0.036-0.141,0.104-0.28,0.104-0.42c0.005-16.985,0.005-33.971-0.002-50.957c0-0.222-0.055-0.462-0.151-0.661
			c-0.748-1.539-1.513-3.07-2.271-4.604c-2.308-4.674-4.616-9.347-6.913-14.026c-0.08-0.165-0.111-0.418-0.044-0.58
			c0.748-1.791,1.517-3.573,2.286-5.354c1.215-2.812,2.435-5.622,3.652-8.433c1.112-2.565,2.229-5.128,3.331-7.697
			c0.185-0.43,0.305-0.889,0.454-1.334c-0.127-0.035-0.254-0.099-0.382-0.099c-5.24-0.003-10.481,0-15.723,0.002
			c-0.347,0.038-0.694,0.075-1.063,0.115c-3.237,7.507-6.491,15.042-9.724,22.587c-0.099,0.232-0.065,0.603,0.054,0.833
			c3.127,6.066,6.269,12.125,9.424,18.177c0.347,0.664,0.523,1.3,0.492,2.079c-0.131,3.248-0.171,6.499-0.24,9.75
			c-0.074,3.483-0.143,6.968-0.218,10.452c-0.031,1.454-0.074,2.908-0.106,4.362c-0.074,3.412-0.147,6.824-0.216,10.236
			c-0.055,2.713-0.104,5.427-0.151,8.14c-0.033,1.975-0.057,3.95-0.085,5.926C86.041,133.837,86.041,134.338,86.04,134.839z
			 M121.028,134.417c0.133,0.027,0.265,0.078,0.396,0.078c5.596,0.005,11.19,0.005,16.786,0c0.131,0,0.262-0.052,0.393-0.08
			c0.011-0.179,0.03-0.357,0.03-0.535c0.001-30.996,0.001-61.991,0.001-92.986c0-0.173,0-0.347,0-0.521c-5.916,0-11.775,0-17.686,0
			c0,0.199,0,0.375,0,0.551c0,30.995,0,61.99,0.003,92.986C120.952,134.079,121.002,134.248,121.028,134.417z M89.52,23.973
			c0,0.413-0.052,0.833,0.008,1.237c0.43,2.895,1.801,5.213,4.161,6.988c2.662,2.001,5.638,2.654,8.864,2.179
			c2.902-0.427,5.315-1.834,7.138-4.139c1.914-2.421,2.538-5.188,1.989-8.231c-0.427-2.371-1.722-4.227-3.489-5.748
			c-0.848-0.73-1.841-1.339-2.856-1.81c-0.931-0.431-1.967-0.675-2.981-0.87c-1.773-0.339-3.534-0.077-5.243,0.427
			c-1.822,0.537-3.41,1.519-4.726,2.889C90.493,18.866,89.475,21.216,89.52,23.973z M50.279,50.774c0-0.466,0.049-0.939-0.008-1.399
			c-0.348-2.813-1.669-5.118-3.797-6.948c-1.653-1.421-3.624-2.106-5.794-2.175c-0.515-0.017-1.036,0.12-1.552,0.197
			c-0.573,0.085-1.162,0.12-1.712,0.284c-1.875,0.558-3.377,1.724-4.568,3.214c-2.111,2.643-2.777,5.701-2.134,9.007
			c0.458,2.351,1.578,4.317,3.432,5.926c1.66,1.44,3.519,2.307,5.66,2.395c4.261,0.175,7.342-1.813,9.342-5.511
			C49.981,54.221,50.362,52.541,50.279,50.774z"/>
		<path fill-rule="evenodd" clip-rule="evenodd" fill="#FFFFFF" d="M0.935,104.175c0.107-0.656,0.219-1.312,0.322-1.969
			c0.504-3.199,1.616-6.181,3.306-8.935c0.687-1.119,1.433-2.216,2.271-3.224c0.806-0.969,1.779-1.797,2.653-2.711
			c1.68-1.758,3.673-3.094,5.779-4.264c1.057-0.588,2.154-1.115,3.272-1.575c1.158-0.478,2.351-0.885,3.553-1.236
			c0.825-0.241,1.691-0.339,2.54-0.497c1.066-0.199,2.128-0.428,3.201-0.582c0.795-0.115,1.605-0.131,2.445-0.194
			c0,3.376,0,6.711,0,10.074c-2.537,0.131-4.988,0.616-7.307,1.629c-4.803,2.097-8.423,5.409-10.146,10.451
			c-1.92,5.622-0.79,10.767,2.952,15.308c3.138,3.809,7.288,5.914,12.128,6.633c5.78,0.858,11.08-0.375,15.783-3.909
			c1.904-1.431,3.451-3.195,4.612-5.279c0.195-0.35,0.398-0.495,0.792-0.456c0.375,0.036,0.755,0.011,1.132,0.015
			c0.033,0.001,0.066,0.022,0.158,0.055c0,0.153,0,0.328,0,0.502c0,4.229-0.005,8.458,0.009,12.688
			c0.001,0.369-0.119,0.579-0.413,0.788c-3.807,2.695-7.991,4.515-12.59,5.295c-1.831,0.312-3.7,0.396-5.551,0.584
			c-0.508-0.011-1.017-0.021-1.525-0.032c-1.692-0.146-3.403-0.181-5.073-0.462c-3.978-0.67-7.728-2.039-11.128-4.223
			c-1.586-1.02-3.047-2.242-4.524-3.424c-0.69-0.552-1.33-1.185-1.911-1.853c-1.39-1.6-2.647-3.297-3.666-5.167
			c-1.592-2.921-2.555-6.034-2.961-9.328c-0.029-0.236-0.076-0.47-0.115-0.705C0.935,106.839,0.935,105.507,0.935,104.175z"/>
		<path fill-rule="evenodd" clip-rule="evenodd" fill="#FFFFFF" d="M131.075,13.131c0.468,0.098,0.937,0.194,1.404,0.293
			c1.656,0.348,3.173,1.034,4.474,2.096c2.193,1.792,3.754,4.02,4.021,6.915c0.117,1.268,0.053,2.539-0.313,3.833
			c-0.462,1.63-1.234,2.981-2.348,4.22c-1.776,1.974-3.973,3.146-6.565,3.545c-3.282,0.504-6.301-0.179-8.96-2.229
			c-1.919-1.479-3.291-3.344-3.84-5.731c-0.805-3.501,0.005-6.592,2.416-9.277c1.089-1.214,2.394-2.106,3.876-2.717
			c0.762-0.314,1.608-0.42,2.412-0.637c0.284-0.077,0.555-0.205,0.831-0.31C129.347,13.131,130.211,13.131,131.075,13.131z"/>
		<path fill-rule="evenodd" clip-rule="evenodd" fill="#FFFFFF" d="M58.259,101.484c-5.056,0.004-10.112,0.009-15.168,0.011
			c-3.401,0.002-6.802,0.003-10.203-0.005c-0.169,0-0.339-0.079-0.508-0.122c0.031,0,0.062-0.001,0.093-0.001
			c13.583,0,27.166-0.002,40.749,0.009c0.443,0.001,0.627-0.07,0.625-0.579c-0.02-5.415-0.017-10.83-0.003-16.245
			c0.001-0.439-0.109-0.582-0.567-0.581c-13.601,0.013-27.202,0.011-40.803,0.012c-0.001-0.036-0.002-0.073-0.002-0.11
			c4.944,0,9.887,0.001,14.831-0.005c0.204,0,0.409-0.067,0.613-0.104c0.032,0,0.064,0.001,0.096,0.001
			c0.204,0.029,0.408,0.084,0.612,0.084c8.206,0.004,16.412,0.004,24.618,0.004c0.216,0,0.431,0,0.75,0c0,0.254,0,0.495,0,0.737
			c0,5.398,0.003,10.797-0.001,16.196c-0.007,11.265-0.018,22.529-0.027,33.794c0,0.161-0.013,0.322-0.02,0.484
			c-0.035,0-0.071,0-0.107,0c-0.001-0.037-0.001-0.073-0.002-0.11c0.001-10.914-0.002-21.829,0.012-32.743
			c0-0.48-0.106-0.643-0.619-0.64c-4.909,0.02-9.818,0.013-14.727,0.013C58.418,101.55,58.339,101.517,58.259,101.484z"/>
		<path fill-rule="evenodd" clip-rule="evenodd" fill="#FFFFFF" d="M58.259,101.484c0.08,0.033,0.159,0.066,0.239,0.1
			c0,11.124,0.001,22.248,0.001,33.371c-0.037,0.037-0.073,0.073-0.109,0.109c-0.036,0-0.072,0-0.108,0
			c0.009-0.197,0.025-0.394,0.025-0.591c0.001-10.765,0.001-21.529-0.001-32.295C58.307,101.947,58.276,101.715,58.259,101.484z"/>
		<path fill-rule="evenodd" clip-rule="evenodd" fill="#FFFFFF" d="M58.391,135.064c0.037-0.036,0.073-0.072,0.109-0.109
			c5.111,0,10.222,0,15.333-0.001c0.001,0.037,0.001,0.073,0.002,0.11C68.687,135.064,63.539,135.064,58.391,135.064z"/>
		<path fill-rule="evenodd" clip-rule="evenodd" fill="#FFFFFF" d="M86.042,133.336c0.028-1.976,0.052-3.951,0.085-5.926
			c0.047-2.713,0.097-5.427,0.151-8.14c0.068-3.412,0.142-6.824,0.216-10.236c0.032-1.454,0.075-2.908,0.106-4.362
			c0.075-3.484,0.144-6.969,0.218-10.452c0.069-3.251,0.109-6.502,0.24-9.75c0.031-0.779-0.146-1.415-0.492-2.079
			c-3.155-6.052-6.297-12.111-9.424-18.177c-0.119-0.23-0.152-0.602-0.054-0.833c3.232-7.545,6.486-15.08,9.724-22.587
			c0.369-0.04,0.717-0.078,1.063-0.115c0.152,0.034,0.304,0.097,0.455,0.097c5.217,0.004,10.434,0.001,15.649,0
			c-0.149,0.445-0.27,0.904-0.454,1.334c-1.102,2.569-2.219,5.132-3.331,7.697c-1.218,2.811-2.438,5.621-3.652,8.433
			c-0.77,1.781-1.538,3.563-2.286,5.354c-0.067,0.161-0.036,0.415,0.044,0.58c2.297,4.679,4.605,9.353,6.913,14.026
			c0.758,1.534,1.522,3.065,2.271,4.604c0.097,0.199,0.151,0.439,0.151,0.661c0.007,16.986,0.007,33.972,0.002,50.957
			c0,0.14-0.068,0.279-0.104,0.42c-0.206-0.034-0.411-0.098-0.616-0.098c-5.59-0.006-11.18-0.005-16.77-0.005
			C86.112,134.271,86.077,133.803,86.042,133.336z"/>
		<path fill-rule="evenodd" clip-rule="evenodd" fill="#FFFFFF" d="M89.52,23.973c-0.045-2.757,0.974-5.107,2.864-7.077
			c1.315-1.37,2.903-2.352,4.726-2.889c1.709-0.504,3.47-0.766,5.243-0.427c1.015,0.194,2.051,0.439,2.981,0.87
			c1.016,0.471,2.009,1.08,2.856,1.81c1.768,1.521,3.063,3.377,3.489,5.748c0.549,3.043-0.075,5.811-1.989,8.231
			c-1.822,2.304-4.235,3.711-7.138,4.139c-3.227,0.475-6.202-0.178-8.864-2.179c-2.36-1.775-3.731-4.093-4.161-6.988
			C89.468,24.807,89.52,24.386,89.52,23.973z"/>
		<path fill-rule="evenodd" clip-rule="evenodd" fill="#FFFFFF" d="M50.279,50.774c0.083,1.767-0.297,3.446-1.131,4.989
			c-2,3.699-5.082,5.686-9.342,5.511c-2.142-0.087-4-0.955-5.66-2.395c-1.854-1.609-2.975-3.575-3.432-5.926
			c-0.644-3.306,0.023-6.364,2.134-9.007c1.19-1.49,2.693-2.656,4.568-3.214c0.55-0.164,1.14-0.199,1.712-0.284
			c0.517-0.077,1.038-0.213,1.552-0.197c2.17,0.069,4.141,0.754,5.794,2.175c2.128,1.83,3.449,4.135,3.797,6.948
			C50.328,49.835,50.279,50.308,50.279,50.774z"/>
		<path fill-rule="evenodd" clip-rule="evenodd" fill="#FFFFFF" d="M32.382,65.73c0.138-0.037,0.276-0.105,0.415-0.106
			c4.931-0.005,9.862-0.005,14.793,0c0.138,0,0.275,0.07,0.414,0.107c-0.03,0.208-0.084,0.415-0.085,0.623
			c-0.004,5.803-0.004,11.606-0.004,17.409c-4.91,0-9.819,0.001-14.729,0.001c-0.714,0-0.715-0.001-0.715-0.738
			c0-5.558,0.001-11.114-0.004-16.672C32.467,66.146,32.412,65.938,32.382,65.73z"/>
		<path fill-rule="evenodd" clip-rule="evenodd" fill="#FFFFFF" d="M121.028,134.417c-0.026-0.169-0.076-0.338-0.076-0.507
			c-0.003-30.996-0.003-61.991-0.003-92.986c0-0.176,0-0.352,0-0.551c5.91,0,11.77,0,17.686,0c0,0.174,0,0.347,0,0.521
			c0,30.995,0,61.99-0.001,92.986c0,0.178-0.02,0.356-0.03,0.535C132.745,134.416,126.887,134.416,121.028,134.417z M121.139,87.327
			c0,15.441,0.003,30.883-0.011,46.323c0,0.505,0.111,0.672,0.646,0.67c5.363-0.021,10.727-0.021,16.089,0.002
			c0.567,0.003,0.676-0.166,0.676-0.696c-0.013-30.828-0.013-61.657,0-92.486c0-0.525-0.102-0.701-0.673-0.699
			c-5.345,0.024-10.69,0.015-16.035,0.015c-0.69,0-0.691,0-0.691,0.709C121.139,56.552,121.139,71.939,121.139,87.327z"/>
		<path fill-rule="evenodd" clip-rule="evenodd" fill="#FFFFFF" d="M32.382,65.73c0.029,0.208,0.084,0.416,0.084,0.624
			c0.005,5.558,0.004,11.114,0.004,16.672c0,0.737,0,0.738,0.715,0.738c4.91,0,9.819-0.001,14.729-0.001
			c-0.204,0.036-0.409,0.104-0.613,0.104c-4.944,0.006-9.887,0.005-14.831,0.005c-0.03-0.001-0.061,0-0.091,0.001
			c-0.006-3.732-0.015-7.465-0.016-11.198C32.364,70.36,32.375,68.045,32.382,65.73z"/>
		<path fill-rule="evenodd" clip-rule="evenodd" fill="#FFFFFF" d="M47.915,83.763c0-5.803,0-11.605,0.004-17.409
			c0-0.208,0.055-0.415,0.085-0.623c0.006,1.331,0.019,2.663,0.018,3.994c-0.001,4.679-0.007,9.358-0.011,14.038
			C47.979,83.764,47.947,83.763,47.915,83.763z"/>
		<path fill-rule="evenodd" clip-rule="evenodd" fill="#FFFFFF" d="M121.028,134.417c5.858-0.001,11.717-0.001,17.575-0.002
			c-0.131,0.028-0.262,0.08-0.393,0.08c-5.596,0.005-11.19,0.005-16.786,0C121.293,134.495,121.161,134.444,121.028,134.417z"/>
		<path fill-rule="evenodd" clip-rule="evenodd" fill="#FFFFFF" d="M86.147,134.739c5.59,0,11.18-0.001,16.77,0.005
			c0.205,0,0.41,0.063,0.616,0.098c-0.125,0.009-0.25,0.024-0.374,0.024c-5.582,0.002-11.164,0.002-16.745,0
			c-0.125,0-0.249-0.018-0.374-0.026C86.076,134.805,86.111,134.772,86.147,134.739z"/>
		<path fill-rule="evenodd" clip-rule="evenodd" fill="#171616" d="M103.98,40.775c-5.216,0.001-10.433,0.004-15.649,0
			c-0.151,0-0.303-0.063-0.455-0.097c5.241-0.002,10.482-0.005,15.723-0.002C103.727,40.676,103.854,40.74,103.98,40.775z"/>
		<path fill-rule="evenodd" clip-rule="evenodd" fill="#080707" d="M32.379,83.873c0.03-0.001,0.061-0.002,0.091-0.001
			c0,0.037,0.001,0.074,0.002,0.11c-0.001,3.635-0.002,7.27-0.004,10.904c-0.03,0-0.06,0-0.089,0
			C32.38,91.215,32.379,87.543,32.379,83.873z"/>
		<path fill-rule="evenodd" clip-rule="evenodd" fill="#FFFFFF" d="M32.38,94.886c0.03,0,0.06,0,0.089,0
			c0.001,2.16,0.002,4.32,0.003,6.48c-0.031,0-0.062,0.001-0.093,0.001C32.38,99.208,32.38,97.047,32.38,94.886z"/>
		<path fill-rule="evenodd" clip-rule="evenodd" fill="#FFFFFF" d="M30.312,133.333c0.508,0.011,1.017,0.021,1.525,0.032
			C31.328,133.354,30.82,133.343,30.312,133.333z"/>
		<path fill-rule="evenodd" clip-rule="evenodd" fill="#FFFFFF" d="M86.147,134.739c-0.036,0.033-0.071,0.066-0.107,0.101
			c0.001-0.501,0.001-1.002,0.002-1.503C86.077,133.803,86.112,134.271,86.147,134.739z"/>
		<path fill-rule="evenodd" clip-rule="evenodd" fill="#FFFFFF" d="M32.473,101.367c-0.001-2.16-0.002-4.32-0.003-6.48
			c0.001-3.635,0.002-7.27,0.004-10.904c13.601-0.001,27.202,0.001,40.803-0.012c0.458-0.001,0.568,0.142,0.567,0.581
			c-0.014,5.415-0.017,10.83,0.003,16.245c0.002,0.509-0.182,0.58-0.625,0.579C59.639,101.365,46.056,101.367,32.473,101.367z"/>
		<path fill-rule="evenodd" clip-rule="evenodd" fill="#FFFFFF" d="M73.833,134.954c-5.111,0.001-10.222,0.001-15.333,0.001
			c0-11.123-0.001-22.247-0.001-33.371c4.909,0,9.818,0.007,14.727-0.013c0.513-0.003,0.619,0.159,0.619,0.64
			C73.831,113.125,73.834,124.04,73.833,134.954z"/>
		<path fill-rule="evenodd" clip-rule="evenodd" fill="#FFFFFF" d="M121.139,87.327c0-15.388,0-30.775,0-46.162
			c0-0.708,0.001-0.709,0.691-0.709c5.345,0,10.69,0.01,16.035-0.015c0.571-0.002,0.673,0.173,0.673,0.699
			c-0.013,30.829-0.013,61.658,0,92.486c0,0.53-0.108,0.699-0.676,0.696c-5.362-0.023-10.726-0.022-16.089-0.002
			c-0.534,0.002-0.646-0.165-0.646-0.67C121.142,118.209,121.139,102.768,121.139,87.327z"/>
	</g>
</g>
</svg>
