<?xml version="1.0" encoding="UTF-8" standalone="no"?>
<svg
   xmlns:dc="http://purl.org/dc/elements/1.1/"
   xmlns:cc="http://creativecommons.org/ns#"
   xmlns:rdf="http://www.w3.org/1999/02/22-rdf-syntax-ns#"
   xmlns:svg="http://www.w3.org/2000/svg"
   xmlns="http://www.w3.org/2000/svg"
   viewBox="0 0 792 612"
   id="svg2"
   height="612"
   width="792"
   version="1.1">
  <metadata
     id="metadata42">
    <rdf:RDF>
      <cc:Work
         rdf:about="">
        <dc:format>image/svg+xml</dc:format>
        <dc:type
           rdf:resource="http://purl.org/dc/dcmitype/StillImage" />
      </cc:Work>
    </rdf:RDF>
  </metadata>
  <defs
     id="defs40" />
  <g
     id="g4">
    <g
       id="g6">
      <path
         id="path8"
         style="fill:#231f20;fill-rule:evenodd;stroke:#000000;stroke-width:0.2;stroke-dasharray:none"
         d="m 360.6063,244.4077 0,208.9828 39.0592,0 0,-208.9828 -39.0592,0 z" />
      <path
         id="path10"
         style="fill:#231f20;fill-rule:evenodd;stroke:#000000;stroke-width:0.2;stroke-dasharray:none"
         d="M 380.228,183.9458 A 24.7876,23.2852 0 0 1 405.0156,207.231 24.7876,23.2852 0 1 1 380.228,183.9458 Z" />
    </g>
    <path
       id="path12"
       style="fill:#231f20;fill-rule:evenodd;stroke:#000000;stroke-width:0.2;stroke-dasharray:none"
       d="m 284.8221,245.1019 38.0993,0.0612 -22.2145,51.3967 21.1549,42.8493 0,114.8896 -39.0591,0 2.5001,-114.3606 -22.5975,-43.547 22.1168,-51.2892 z" />
    <path
       id="path14"
       style="fill:#231f20;fill-rule:evenodd;stroke:#000000;stroke-width:0.2;stroke-dasharray:none"
       d="m 315.3844,184.697 a 24.7876,23.2852 0 0 1 24.7875,23.2852 24.7876,23.2852 0 1 1 -24.7875,-23.2852 z" />
    <g
       id="g16">
      <g
         id="g18">
        <path
           id="path20"
           style="fill:#231f20;fill-rule:evenodd;stroke:#000000;stroke-width:0.2;stroke-dasharray:none"
           d="m 160.8833,330.3664 a 67.0338,60.3078 0 0 1 67.0338,60.3078 67.0338,60.3078 0 1 1 -67.0338,-60.3078 z" />
        <path
           id="path22"
           style="fill:#ffffff;fill-rule:evenodd;stroke:#000000;stroke-width:0.2;stroke-dasharray:none"
           d="m 160.8834,352.4616 a 42.7847,38.2124 0 0 1 42.7848,38.2124 42.7847,38.2124 0 1 1 -42.7848,-38.2124 z" />
        <path
           id="path24"
           style="fill:#ffffff;fill-rule:evenodd"
           d="m 159.0466,310.4082 0,96.319 78.0531,0 0,-96.319 -78.0531,0 z" />
        <path
           id="path26"
           style="fill:#ffffff;fill-rule:evenodd"
           d="m 232.5084,448.3786 0,-57.7046 -28.8406,0 0,57.7046 28.8406,0 z" />
      </g>
      <g
         id="g28">
        <path
           id="path30"
           style="fill:#231f20;fill-rule:evenodd;stroke:#000000;stroke-width:0.2;stroke-dasharray:none"
           d="M 181.4821,244.1948 A 21.9548,23.2852 0 0 1 203.4368,267.48 21.9548,23.2852 0 1 1 181.4821,244.1948 Z" />
        <path
           id="path32"
           style="fill:#231f20;fill-rule:evenodd;stroke:#000000;stroke-width:0.2;stroke-dasharray:none"
           d="m 163.6906,300.6578 0,64.8236 34.5953,0 0,-64.8236 -34.5953,0 z" />
        <path
           id="path34"
           style="fill:#231f20;fill-rule:evenodd;stroke:#000000;stroke-width:0.2;stroke-dasharray:none"
           d="m 221.3925,341.4813 0,113.2503 34.5953,0 0,-113.2503 -34.5953,0 z" />
        <path
           id="path36"
           style="fill:#231f20;fill-rule:evenodd;stroke:#000000;stroke-width:0.2;stroke-dasharray:none"
           d="m 163.6906,380.1359 92.2972,0 0,-39.0591 -92.2972,0 0,39.0591 z" />
      </g>
    </g>
  </g>
</svg>
